<?xml version="1.0" encoding="UTF-8" standalone="no"?>
<!DOCTYPE svg PUBLIC "-//W3C//DTD SVG 1.1//EN"
 "http://www.w3.org/Graphics/SVG/1.1/DTD/svg11.dtd">
<!-- Generated by graphviz version 5.0.0 (20220707.1540)
 -->
<!-- Title: dependencies Pages: 1 -->
<svg width="342pt" height="174pt"
 viewBox="0.00 0.00 342.00 173.80" xmlns="http://www.w3.org/2000/svg" xmlns:xlink="http://www.w3.org/1999/xlink">
<g id="graph0" class="graph" transform="scale(1 1) rotate(0) translate(4 169.8)">
<title>dependencies</title>
<polygon fill="white" stroke="transparent" points="-4,4 -4,-169.8 338,-169.8 338,4 -4,4"/>
<text text-anchor="middle" x="167" y="-8.2" font-family="sans-serif" font-size="14.00">dependencies</text>
<g id="clust1" class="cluster">
<title>cluster_HomepageModule</title>
<polygon fill="none" stroke="black" stroke-dasharray="1,5" points="8,-32.8 8,-157.8 326,-157.8 326,-32.8 8,-32.8"/>
</g>
<g id="clust6" class="cluster">
<title>cluster_HomepageModule_providers</title>
<polygon fill="none" stroke="black" points="138,-40.8 138,-92.8 318,-92.8 318,-40.8 138,-40.8"/>
</g>
<g id="clust3" class="cluster">
<title>cluster_HomepageModule_imports</title>
<polygon fill="none" stroke="black" points="16,-40.8 16,-92.8 130,-92.8 130,-40.8 16,-40.8"/>
</g>
<!-- PrismaModule -->
<g id="node1" class="node">
<title>PrismaModule</title>
<polygon fill="#8dd3c7" stroke="black" points="122.44,-84.8 119.44,-88.8 98.44,-88.8 95.44,-84.8 23.56,-84.8 23.56,-48.8 122.44,-48.8 122.44,-84.8"/>
<text text-anchor="middle" x="73" y="-62.6" font-family="Times,serif" font-size="14.00">PrismaModule</text>
</g>
<!-- HomepageModule -->
<g id="node2" class="node">
<title>HomepageModule</title>
<polygon fill="#8dd3c7" stroke="black" points="212.19,-149.8 209.19,-153.8 188.19,-153.8 185.19,-149.8 91.81,-149.8 91.81,-113.8 212.19,-113.8 212.19,-149.8"/>
<text text-anchor="middle" x="152" y="-127.6" font-family="Times,serif" font-size="14.00">HomepageModule</text>
</g>
<!-- PrismaModule&#45;&gt;HomepageModule -->
<g id="edge1" class="edge">
<title>PrismaModule&#45;&gt;HomepageModule</title>
<path fill="none" stroke="black" d="M107.06,-84.91C107.06,-84.91 107.06,-103.79 107.06,-103.79"/>
<polygon fill="black" stroke="black" points="103.56,-103.79 107.06,-113.79 110.56,-103.79 103.56,-103.79"/>
</g>
<!-- HomepageService -->
<g id="node3" class="node">
<title>HomepageService</title>
<ellipse fill="#fdb462" stroke="black" cx="228" cy="-66.8" rx="81.65" ry="18"/>
<text text-anchor="middle" x="228" y="-62.6" font-family="Times,serif" font-size="14.00">HomepageService</text>
</g>
<!-- HomepageService&#45;&gt;HomepageModule -->
<g id="edge2" class="edge">
<title>HomepageService&#45;&gt;HomepageModule</title>
<path fill="none" stroke="black" d="M179.14,-81.55C179.14,-81.55 179.14,-103.39 179.14,-103.39"/>
<polygon fill="black" stroke="black" points="175.64,-103.39 179.14,-113.39 182.64,-103.39 175.64,-103.39"/>
</g>
</g>
</svg>
