<?xml version="1.0" encoding="UTF-8" standalone="no"?>
<!DOCTYPE svg PUBLIC "-//W3C//DTD SVG 1.1//EN"
 "http://www.w3.org/Graphics/SVG/1.1/DTD/svg11.dtd">
<!-- Generated by graphviz version 5.0.0 (20220707.1540)
 -->
<!-- Title: dependencies Pages: 1 -->
<svg width="978pt" height="174pt"
 viewBox="0.00 0.00 978.00 173.80" xmlns="http://www.w3.org/2000/svg" xmlns:xlink="http://www.w3.org/1999/xlink">
<g id="graph0" class="graph" transform="scale(1 1) rotate(0) translate(4 169.8)">
<title>dependencies</title>
<polygon fill="white" stroke="transparent" points="-4,4 -4,-169.8 974,-169.8 974,4 -4,4"/>
<text text-anchor="middle" x="485" y="-8.2" font-family="sans-serif" font-size="14.00">dependencies</text>
<g id="clust1" class="cluster">
<title>cluster_AppModule</title>
<polygon fill="none" stroke="black" stroke-dasharray="1,5" points="8,-32.8 8,-157.8 962,-157.8 962,-32.8 8,-32.8"/>
</g>
<g id="clust3" class="cluster">
<title>cluster_AppModule_imports</title>
<polygon fill="none" stroke="black" points="154,-40.8 154,-92.8 954,-92.8 954,-40.8 154,-40.8"/>
</g>
<g id="clust6" class="cluster">
<title>cluster_AppModule_providers</title>
<polygon fill="none" stroke="black" points="16,-40.8 16,-92.8 146,-92.8 146,-40.8 16,-40.8"/>
</g>
<!-- AuthModule -->
<g id="node1" class="node">
<title>AuthModule</title>
<polygon fill="#8dd3c7" stroke="black" points="945.55,-84.8 942.55,-88.8 921.55,-88.8 918.55,-84.8 858.45,-84.8 858.45,-48.8 945.55,-48.8 945.55,-84.8"/>
<text text-anchor="middle" x="902" y="-62.6" font-family="Times,serif" font-size="14.00">AuthModule</text>
</g>
<!-- AppModule -->
<g id="node8" class="node">
<title>AppModule</title>
<polygon fill="#8dd3c7" stroke="black" points="535.66,-149.8 532.66,-153.8 511.66,-153.8 508.66,-149.8 452.34,-149.8 452.34,-113.8 535.66,-113.8 535.66,-149.8"/>
<text text-anchor="middle" x="494" y="-127.6" font-family="Times,serif" font-size="14.00">AppModule</text>
</g>
<!-- AuthModule&#45;&gt;AppModule -->
<g id="edge1" class="edge">
<title>AuthModule&#45;&gt;AppModule</title>
<path fill="none" stroke="black" d="M902,-85.09C902,-107.01 902,-140.8 902,-140.8 902,-140.8 545.75,-140.8 545.75,-140.8"/>
<polygon fill="black" stroke="black" points="545.75,-137.3 535.75,-140.8 545.75,-144.3 545.75,-137.3"/>
</g>
<!-- GameModule -->
<g id="node2" class="node">
<title>GameModule</title>
<polygon fill="#8dd3c7" stroke="black" points="840.48,-84.8 837.48,-88.8 816.48,-88.8 813.48,-84.8 747.52,-84.8 747.52,-48.8 840.48,-48.8 840.48,-84.8"/>
<text text-anchor="middle" x="794" y="-62.6" font-family="Times,serif" font-size="14.00">GameModule</text>
</g>
<!-- GameModule&#45;&gt;AppModule -->
<g id="edge2" class="edge">
<title>GameModule&#45;&gt;AppModule</title>
<path fill="none" stroke="black" d="M794,-84.91C794,-104.14 794,-131.8 794,-131.8 794,-131.8 545.71,-131.8 545.71,-131.8"/>
<polygon fill="black" stroke="black" points="545.71,-128.3 535.71,-131.8 545.71,-135.3 545.71,-128.3"/>
</g>
<!-- GenreModule -->
<g id="node3" class="node">
<title>GenreModule</title>
<polygon fill="#8dd3c7" stroke="black" points="729.75,-84.8 726.75,-88.8 705.75,-88.8 702.75,-84.8 636.25,-84.8 636.25,-48.8 729.75,-48.8 729.75,-84.8"/>
<text text-anchor="middle" x="683" y="-62.6" font-family="Times,serif" font-size="14.00">GenreModule</text>
</g>
<!-- GenreModule&#45;&gt;AppModule -->
<g id="edge3" class="edge">
<title>GenreModule&#45;&gt;AppModule</title>
<path fill="none" stroke="black" d="M683,-84.83C683,-101.2 683,-122.8 683,-122.8 683,-122.8 545.95,-122.8 545.95,-122.8"/>
<polygon fill="black" stroke="black" points="545.95,-119.3 535.95,-122.8 545.95,-126.3 545.95,-119.3"/>
</g>
<!-- HomepageModule -->
<g id="node4" class="node">
<title>HomepageModule</title>
<polygon fill="#8dd3c7" stroke="black" points="618.19,-84.8 615.19,-88.8 594.19,-88.8 591.19,-84.8 497.81,-84.8 497.81,-48.8 618.19,-48.8 618.19,-84.8"/>
<text text-anchor="middle" x="558" y="-62.6" font-family="Times,serif" font-size="14.00">HomepageModule</text>
</g>
<!-- HomepageModule&#45;&gt;AppModule -->
<g id="edge4" class="edge">
<title>HomepageModule&#45;&gt;AppModule</title>
<path fill="none" stroke="black" d="M516.87,-84.91C516.87,-84.91 516.87,-103.79 516.87,-103.79"/>
<polygon fill="black" stroke="black" points="513.37,-103.79 516.87,-113.79 520.37,-103.79 513.37,-103.79"/>
</g>
<!-- PrismaModule -->
<g id="node5" class="node">
<title>PrismaModule</title>
<polygon fill="#8dd3c7" stroke="black" points="480.44,-84.8 477.44,-88.8 456.44,-88.8 453.44,-84.8 381.56,-84.8 381.56,-48.8 480.44,-48.8 480.44,-84.8"/>
<text text-anchor="middle" x="431" y="-62.6" font-family="Times,serif" font-size="14.00">PrismaModule</text>
</g>
<!-- PrismaModule&#45;&gt;AppModule -->
<g id="edge5" class="edge">
<title>PrismaModule&#45;&gt;AppModule</title>
<path fill="none" stroke="black" d="M466.19,-84.91C466.19,-84.91 466.19,-103.79 466.19,-103.79"/>
<polygon fill="black" stroke="black" points="462.69,-103.79 466.19,-113.79 469.69,-103.79 462.69,-103.79"/>
</g>
<!-- ProfileModule -->
<g id="node6" class="node">
<title>ProfileModule</title>
<polygon fill="#8dd3c7" stroke="black" points="363.66,-84.8 360.66,-88.8 339.66,-88.8 336.66,-84.8 266.34,-84.8 266.34,-48.8 363.66,-48.8 363.66,-84.8"/>
<text text-anchor="middle" x="315" y="-62.6" font-family="Times,serif" font-size="14.00">ProfileModule</text>
</g>
<!-- ProfileModule&#45;&gt;AppModule -->
<g id="edge6" class="edge">
<title>ProfileModule&#45;&gt;AppModule</title>
<path fill="none" stroke="black" d="M315,-84.83C315,-101.2 315,-122.8 315,-122.8 315,-122.8 442.03,-122.8 442.03,-122.8"/>
<polygon fill="black" stroke="black" points="442.03,-126.3 452.03,-122.8 442.03,-119.3 442.03,-126.3"/>
</g>
<!-- UserModule -->
<g id="node7" class="node">
<title>UserModule</title>
<polygon fill="#8dd3c7" stroke="black" points="247.99,-84.8 244.99,-88.8 223.99,-88.8 220.99,-84.8 162.01,-84.8 162.01,-48.8 247.99,-48.8 247.99,-84.8"/>
<text text-anchor="middle" x="205" y="-62.6" font-family="Times,serif" font-size="14.00">UserModule</text>
</g>
<!-- UserModule&#45;&gt;AppModule -->
<g id="edge7" class="edge">
<title>UserModule&#45;&gt;AppModule</title>
<path fill="none" stroke="black" d="M205,-84.91C205,-104.14 205,-131.8 205,-131.8 205,-131.8 442.29,-131.8 442.29,-131.8"/>
<polygon fill="black" stroke="black" points="442.29,-135.3 452.29,-131.8 442.29,-128.3 442.29,-135.3"/>
</g>
<!-- AppService -->
<g id="node9" class="node">
<title>AppService</title>
<ellipse fill="#fdb462" stroke="black" cx="81" cy="-66.8" rx="56.75" ry="18"/>
<text text-anchor="middle" x="81" y="-62.6" font-family="Times,serif" font-size="14.00">AppService</text>
</g>
<!-- AppService&#45;&gt;AppModule -->
<g id="edge8" class="edge">
<title>AppService&#45;&gt;AppModule</title>
<path fill="none" stroke="black" d="M81,-85.09C81,-107.01 81,-140.8 81,-140.8 81,-140.8 442.13,-140.8 442.13,-140.8"/>
<polygon fill="black" stroke="black" points="442.13,-144.3 452.13,-140.8 442.13,-137.3 442.13,-144.3"/>
</g>
</g>
</svg>
