<?xml version="1.0" encoding="UTF-8" standalone="no"?>
<!DOCTYPE svg PUBLIC "-//W3C//DTD SVG 1.1//EN"
 "http://www.w3.org/Graphics/SVG/1.1/DTD/svg11.dtd">
<!-- Generated by graphviz version 5.0.0 (20220707.1540)
 -->
<!-- Title: dependencies Pages: 1 -->
<svg width="2328pt" height="250pt"
 viewBox="0.00 0.00 2328.00 249.80" xmlns="http://www.w3.org/2000/svg" xmlns:xlink="http://www.w3.org/1999/xlink">
<g id="graph0" class="graph" transform="scale(1 1) rotate(0) translate(4 245.8)">
<title>dependencies</title>
<polygon fill="white" stroke="transparent" points="-4,4 -4,-245.8 2324,-245.8 2324,4 -4,4"/>
<text text-anchor="middle" x="1160" y="-8.2" font-family="sans-serif" font-size="14.00">dependencies</text>
<g id="clust1" class="cluster">
<title>cluster_AppModule</title>
<polygon fill="none" stroke="black" stroke-dasharray="1,5" points="1164,-32.8 1164,-233.8 2014,-233.8 2014,-32.8 1164,-32.8"/>
</g>
<g id="clust3" class="cluster">
<title>cluster_AppModule_imports</title>
<polygon fill="none" stroke="black" points="1310,-40.8 1310,-168.8 1994,-168.8 1994,-40.8 1310,-40.8"/>
</g>
<g id="clust6" class="cluster">
<title>cluster_AppModule_providers</title>
<polygon fill="none" stroke="black" points="1172,-116.8 1172,-168.8 1302,-168.8 1302,-116.8 1172,-116.8"/>
</g>
<g id="clust7" class="cluster">
<title>cluster_AuthModule</title>
<polygon fill="none" stroke="black" stroke-dasharray="1,5" points="8,-32.8 8,-100.8 290,-100.8 290,-32.8 8,-32.8"/>
</g>
<g id="clust12" class="cluster">
<title>cluster_AuthModule_providers</title>
<polygon fill="none" stroke="black" points="16,-40.8 16,-92.8 282,-92.8 282,-40.8 16,-40.8"/>
</g>
<g id="clust13" class="cluster">
<title>cluster_GameModule</title>
<polygon fill="none" stroke="black" stroke-dasharray="1,5" points="298,-32.8 298,-100.8 456,-100.8 456,-32.8 298,-32.8"/>
</g>
<g id="clust18" class="cluster">
<title>cluster_GameModule_providers</title>
<polygon fill="none" stroke="black" points="306,-40.8 306,-92.8 448,-92.8 448,-40.8 306,-40.8"/>
</g>
<g id="clust19" class="cluster">
<title>cluster_GenreModule</title>
<polygon fill="none" stroke="black" stroke-dasharray="1,5" points="464,-32.8 464,-100.8 624,-100.8 624,-32.8 464,-32.8"/>
</g>
<g id="clust24" class="cluster">
<title>cluster_GenreModule_providers</title>
<polygon fill="none" stroke="black" points="472,-40.8 472,-92.8 616,-92.8 616,-40.8 472,-40.8"/>
</g>
<g id="clust25" class="cluster">
<title>cluster_HomepageModule</title>
<polygon fill="none" stroke="black" stroke-dasharray="1,5" points="632,-32.8 632,-100.8 828,-100.8 828,-32.8 632,-32.8"/>
</g>
<g id="clust30" class="cluster">
<title>cluster_HomepageModule_providers</title>
<polygon fill="none" stroke="black" points="640,-40.8 640,-92.8 820,-92.8 820,-40.8 640,-40.8"/>
</g>
<g id="clust31" class="cluster">
<title>cluster_PrismaModule</title>
<polygon fill="none" stroke="black" stroke-dasharray="1,5" points="2022,-108.8 2022,-176.8 2312,-176.8 2312,-108.8 2022,-108.8"/>
</g>
<g id="clust34" class="cluster">
<title>cluster_PrismaModule_exports</title>
<polygon fill="none" stroke="black" points="2188,-116.8 2188,-168.8 2304,-168.8 2304,-116.8 2188,-116.8"/>
</g>
<g id="clust36" class="cluster">
<title>cluster_PrismaModule_providers</title>
<polygon fill="none" stroke="black" points="2030,-116.8 2030,-168.8 2180,-168.8 2180,-116.8 2030,-116.8"/>
</g>
<g id="clust37" class="cluster">
<title>cluster_ProfileModule</title>
<polygon fill="none" stroke="black" stroke-dasharray="1,5" points="836,-32.8 836,-100.8 1000,-100.8 1000,-32.8 836,-32.8"/>
</g>
<g id="clust42" class="cluster">
<title>cluster_ProfileModule_providers</title>
<polygon fill="none" stroke="black" points="844,-40.8 844,-92.8 992,-92.8 992,-40.8 844,-40.8"/>
</g>
<g id="clust43" class="cluster">
<title>cluster_UserModule</title>
<polygon fill="none" stroke="black" stroke-dasharray="1,5" points="1008,-32.8 1008,-100.8 1156,-100.8 1156,-32.8 1008,-32.8"/>
</g>
<g id="clust48" class="cluster">
<title>cluster_UserModule_providers</title>
<polygon fill="none" stroke="black" points="1016,-40.8 1016,-92.8 1148,-92.8 1148,-40.8 1016,-40.8"/>
</g>
<!-- AuthModule -->
<g id="node1" class="node">
<title>AuthModule</title>
<polygon fill="#8dd3c7" stroke="black" points="1405.55,-160.8 1402.55,-164.8 1381.55,-164.8 1378.55,-160.8 1318.45,-160.8 1318.45,-124.8 1405.55,-124.8 1405.55,-160.8"/>
<text text-anchor="middle" x="1362" y="-138.6" font-family="Times,serif" font-size="14.00">AuthModule</text>
</g>
<!-- AppModule -->
<g id="node8" class="node">
<title>AppModule</title>
<polygon fill="#8dd3c7" stroke="black" points="1684.66,-225.8 1681.66,-229.8 1660.66,-229.8 1657.66,-225.8 1601.34,-225.8 1601.34,-189.8 1684.66,-189.8 1684.66,-225.8"/>
<text text-anchor="middle" x="1643" y="-203.6" font-family="Times,serif" font-size="14.00">AppModule</text>
</g>
<!-- AuthModule&#45;&gt;AppModule -->
<g id="edge1" class="edge">
<title>AuthModule&#45;&gt;AppModule</title>
<path fill="none" stroke="black" d="M1362,-160.91C1362,-180.14 1362,-207.8 1362,-207.8 1362,-207.8 1591.23,-207.8 1591.23,-207.8"/>
<polygon fill="black" stroke="black" points="1591.23,-211.3 1601.23,-207.8 1591.23,-204.3 1591.23,-211.3"/>
</g>
<!-- GameModule -->
<g id="node2" class="node">
<title>GameModule</title>
<polygon fill="#8dd3c7" stroke="black" points="1516.48,-160.8 1513.48,-164.8 1492.48,-164.8 1489.48,-160.8 1423.52,-160.8 1423.52,-124.8 1516.48,-124.8 1516.48,-160.8"/>
<text text-anchor="middle" x="1470" y="-138.6" font-family="Times,serif" font-size="14.00">GameModule</text>
</g>
<!-- GameModule&#45;&gt;AppModule -->
<g id="edge2" class="edge">
<title>GameModule&#45;&gt;AppModule</title>
<path fill="none" stroke="black" d="M1470,-160.83C1470,-177.2 1470,-198.8 1470,-198.8 1470,-198.8 1591.12,-198.8 1591.12,-198.8"/>
<polygon fill="black" stroke="black" points="1591.12,-202.3 1601.12,-198.8 1591.12,-195.3 1591.12,-202.3"/>
</g>
<!-- GenreModule -->
<g id="node3" class="node">
<title>GenreModule</title>
<polygon fill="#8dd3c7" stroke="black" points="1627.75,-160.8 1624.75,-164.8 1603.75,-164.8 1600.75,-160.8 1534.25,-160.8 1534.25,-124.8 1627.75,-124.8 1627.75,-160.8"/>
<text text-anchor="middle" x="1581" y="-138.6" font-family="Times,serif" font-size="14.00">GenreModule</text>
</g>
<!-- GenreModule&#45;&gt;AppModule -->
<g id="edge3" class="edge">
<title>GenreModule&#45;&gt;AppModule</title>
<path fill="none" stroke="black" d="M1614.52,-160.91C1614.52,-160.91 1614.52,-179.79 1614.52,-179.79"/>
<polygon fill="black" stroke="black" points="1611.02,-179.79 1614.52,-189.79 1618.02,-179.79 1611.02,-179.79"/>
</g>
<!-- HomepageModule -->
<g id="node4" class="node">
<title>HomepageModule</title>
<polygon fill="#8dd3c7" stroke="black" points="1766.19,-160.8 1763.19,-164.8 1742.19,-164.8 1739.19,-160.8 1645.81,-160.8 1645.81,-124.8 1766.19,-124.8 1766.19,-160.8"/>
<text text-anchor="middle" x="1706" y="-138.6" font-family="Times,serif" font-size="14.00">HomepageModule</text>
</g>
<!-- HomepageModule&#45;&gt;AppModule -->
<g id="edge4" class="edge">
<title>HomepageModule&#45;&gt;AppModule</title>
<path fill="none" stroke="black" d="M1665.37,-160.91C1665.37,-160.91 1665.37,-179.79 1665.37,-179.79"/>
<polygon fill="black" stroke="black" points="1661.87,-179.79 1665.37,-189.79 1668.87,-179.79 1661.87,-179.79"/>
</g>
<!-- PrismaModule -->
<g id="node5" class="node">
<title>PrismaModule</title>
<polygon fill="#8dd3c7" stroke="black" points="1882.44,-84.8 1879.44,-88.8 1858.44,-88.8 1855.44,-84.8 1783.56,-84.8 1783.56,-48.8 1882.44,-48.8 1882.44,-84.8"/>
<text text-anchor="middle" x="1833" y="-62.6" font-family="Times,serif" font-size="14.00">PrismaModule</text>
</g>
<!-- PrismaModule&#45;&gt;AuthModule -->
<g id="edge9" class="edge">
<title>PrismaModule&#45;&gt;AuthModule</title>
<path fill="none" stroke="black" d="M1783.65,-54.8C1666.99,-54.8 1383.89,-54.8 1383.89,-54.8 1383.89,-54.8 1383.89,-114.57 1383.89,-114.57"/>
<polygon fill="black" stroke="black" points="1380.39,-114.57 1383.89,-124.57 1387.39,-114.57 1380.39,-114.57"/>
</g>
<!-- PrismaModule&#45;&gt;GameModule -->
<g id="edge12" class="edge">
<title>PrismaModule&#45;&gt;GameModule</title>
<path fill="none" stroke="black" d="M1783.58,-60.8C1687.64,-60.8 1485.5,-60.8 1485.5,-60.8 1485.5,-60.8 1485.5,-114.6 1485.5,-114.6"/>
<polygon fill="black" stroke="black" points="1482,-114.6 1485.5,-124.6 1489,-114.6 1482,-114.6"/>
</g>
<!-- PrismaModule&#45;&gt;GenreModule -->
<g id="edge14" class="edge">
<title>PrismaModule&#45;&gt;GenreModule</title>
<path fill="none" stroke="black" d="M1783.74,-66.8C1714.46,-66.8 1596.63,-66.8 1596.63,-66.8 1596.63,-66.8 1596.63,-114.79 1596.63,-114.79"/>
<polygon fill="black" stroke="black" points="1593.13,-114.79 1596.63,-124.79 1600.13,-114.79 1593.13,-114.79"/>
</g>
<!-- PrismaModule&#45;&gt;HomepageModule -->
<g id="edge16" class="edge">
<title>PrismaModule&#45;&gt;HomepageModule</title>
<path fill="none" stroke="black" d="M1783.59,-78.8C1755.56,-78.8 1726.03,-78.8 1726.03,-78.8 1726.03,-78.8 1726.03,-114.63 1726.03,-114.63"/>
<polygon fill="black" stroke="black" points="1722.53,-114.63 1726.03,-124.63 1729.53,-114.63 1722.53,-114.63"/>
</g>
<!-- ProfileModule -->
<g id="node6" class="node">
<title>ProfileModule</title>
<polygon fill="#8dd3c7" stroke="black" points="1881.66,-160.8 1878.66,-164.8 1857.66,-164.8 1854.66,-160.8 1784.34,-160.8 1784.34,-124.8 1881.66,-124.8 1881.66,-160.8"/>
<text text-anchor="middle" x="1833" y="-138.6" font-family="Times,serif" font-size="14.00">ProfileModule</text>
</g>
<!-- PrismaModule&#45;&gt;ProfileModule -->
<g id="edge20" class="edge">
<title>PrismaModule&#45;&gt;ProfileModule</title>
<path fill="none" stroke="black" d="M1849.28,-84.81C1849.28,-84.81 1849.28,-114.65 1849.28,-114.65"/>
<polygon fill="black" stroke="black" points="1845.78,-114.65 1849.28,-124.65 1852.78,-114.65 1845.78,-114.65"/>
</g>
<!-- UserModule -->
<g id="node7" class="node">
<title>UserModule</title>
<polygon fill="#8dd3c7" stroke="black" points="1985.99,-160.8 1982.99,-164.8 1961.99,-164.8 1958.99,-160.8 1900.01,-160.8 1900.01,-124.8 1985.99,-124.8 1985.99,-160.8"/>
<text text-anchor="middle" x="1943" y="-138.6" font-family="Times,serif" font-size="14.00">UserModule</text>
</g>
<!-- PrismaModule&#45;&gt;UserModule -->
<g id="edge22" class="edge">
<title>PrismaModule&#45;&gt;UserModule</title>
<path fill="none" stroke="black" d="M1882.5,-75.8C1917.17,-75.8 1957.33,-75.8 1957.33,-75.8 1957.33,-75.8 1957.33,-114.49 1957.33,-114.49"/>
<polygon fill="black" stroke="black" points="1953.83,-114.49 1957.33,-124.49 1960.83,-114.49 1953.83,-114.49"/>
</g>
<!-- PrismaModule&#45;&gt;AppModule -->
<g id="edge5" class="edge">
<title>PrismaModule&#45;&gt;AppModule</title>
<path fill="none" stroke="black" d="M1783.77,-72.8C1725.67,-72.8 1636.89,-72.8 1636.89,-72.8 1636.89,-72.8 1636.89,-179.59 1636.89,-179.59"/>
<polygon fill="black" stroke="black" points="1633.39,-179.59 1636.89,-189.59 1640.39,-179.59 1633.39,-179.59"/>
</g>
<!-- PrismaService  -->
<g id="node15" class="node">
<title>PrismaService </title>
<polygon fill="#fb8072" stroke="black" points="2296.37,-160.8 2195.63,-160.8 2195.63,-124.8 2296.37,-124.8 2296.37,-160.8"/>
<text text-anchor="middle" x="2246" y="-138.6" font-family="Times,serif" font-size="14.00">PrismaService </text>
</g>
<!-- PrismaModule&#45;&gt;PrismaService  -->
<g id="edge18" class="edge">
<title>PrismaModule&#45;&gt;PrismaService </title>
<path fill="none" stroke="black" stroke-dasharray="5,2" d="M1882.41,-57.8C1992.03,-57.8 2246,-57.8 2246,-57.8 2246,-57.8 2246,-114.77 2246,-114.77"/>
<polygon fill="black" stroke="black" points="2242.5,-114.77 2246,-124.77 2249.5,-114.77 2242.5,-114.77"/>
</g>
<!-- ProfileModule&#45;&gt;AppModule -->
<g id="edge6" class="edge">
<title>ProfileModule&#45;&gt;AppModule</title>
<path fill="none" stroke="black" d="M1833,-160.82C1833,-178.17 1833,-201.8 1833,-201.8 1833,-201.8 1694.7,-201.8 1694.7,-201.8"/>
<polygon fill="black" stroke="black" points="1694.7,-198.3 1684.7,-201.8 1694.7,-205.3 1694.7,-198.3"/>
</g>
<!-- UserModule&#45;&gt;AppModule -->
<g id="edge7" class="edge">
<title>UserModule&#45;&gt;AppModule</title>
<path fill="none" stroke="black" d="M1943,-161.08C1943,-182.12 1943,-213.8 1943,-213.8 1943,-213.8 1694.71,-213.8 1694.71,-213.8"/>
<polygon fill="black" stroke="black" points="1694.71,-210.3 1684.71,-213.8 1694.71,-217.3 1694.71,-210.3"/>
</g>
<!-- AppService -->
<g id="node9" class="node">
<title>AppService</title>
<ellipse fill="#fdb462" stroke="black" cx="1237" cy="-142.8" rx="56.75" ry="18"/>
<text text-anchor="middle" x="1237" y="-138.6" font-family="Times,serif" font-size="14.00">AppService</text>
</g>
<!-- AppService&#45;&gt;AppModule -->
<g id="edge8" class="edge">
<title>AppService&#45;&gt;AppModule</title>
<path fill="none" stroke="black" d="M1237,-161.09C1237,-183.01 1237,-216.8 1237,-216.8 1237,-216.8 1591.08,-216.8 1591.08,-216.8"/>
<polygon fill="black" stroke="black" points="1591.08,-220.3 1601.08,-216.8 1591.08,-213.3 1591.08,-220.3"/>
</g>
<!-- AuthService -->
<g id="node10" class="node">
<title>AuthService</title>
<ellipse fill="#fdb462" stroke="black" cx="215" cy="-66.8" rx="59.11" ry="18"/>
<text text-anchor="middle" x="215" y="-62.6" font-family="Times,serif" font-size="14.00">AuthService</text>
</g>
<!-- AuthService&#45;&gt;AuthModule -->
<g id="edge10" class="edge">
<title>AuthService&#45;&gt;AuthModule</title>
<path fill="none" stroke="black" d="M215,-84.95C215,-98.54 215,-114.8 215,-114.8 215,-114.8 1362,-114.8 1362,-114.8 1362,-114.8 1362,-115.78 1362,-115.78"/>
<polygon fill="black" stroke="black" points="1358.5,-114.59 1362,-124.59 1365.5,-114.59 1358.5,-114.59"/>
</g>
<!-- JwtStrategy -->
<g id="node11" class="node">
<title>JwtStrategy</title>
<ellipse fill="#fdb462" stroke="black" cx="81" cy="-66.8" rx="56.77" ry="18"/>
<text text-anchor="middle" x="81" y="-62.6" font-family="Times,serif" font-size="14.00">JwtStrategy</text>
</g>
<!-- JwtStrategy&#45;&gt;AuthModule -->
<g id="edge11" class="edge">
<title>JwtStrategy&#45;&gt;AuthModule</title>
<path fill="none" stroke="black" d="M81,-85.04C81,-100.37 81,-119.8 81,-119.8 81,-119.8 1340.11,-119.8 1340.11,-119.8 1340.11,-119.8 1340.11,-120.29 1340.11,-120.29"/>
<polygon fill="black" stroke="black" points="1336.61,-114.68 1340.11,-124.68 1343.61,-114.68 1336.61,-114.68"/>
</g>
<!-- GameService -->
<g id="node12" class="node">
<title>GameService</title>
<ellipse fill="#fdb462" stroke="black" cx="377" cy="-66.8" rx="63.1" ry="18"/>
<text text-anchor="middle" x="377" y="-62.6" font-family="Times,serif" font-size="14.00">GameService</text>
</g>
<!-- GameService&#45;&gt;GameModule -->
<g id="edge13" class="edge">
<title>GameService&#45;&gt;GameModule</title>
<path fill="none" stroke="black" d="M377,-85.29C377,-96.94 377,-109.8 377,-109.8 377,-109.8 1454.5,-109.8 1454.5,-109.8 1454.5,-109.8 1454.5,-114.76 1454.5,-114.76"/>
<polygon fill="black" stroke="black" points="1451,-114.76 1454.5,-124.76 1458,-114.76 1451,-114.76"/>
</g>
<!-- GenreService -->
<g id="node13" class="node">
<title>GenreService</title>
<ellipse fill="#fdb462" stroke="black" cx="544" cy="-66.8" rx="63.67" ry="18"/>
<text text-anchor="middle" x="544" y="-62.6" font-family="Times,serif" font-size="14.00">GenreService</text>
</g>
<!-- GenreService&#45;&gt;GenreModule -->
<g id="edge15" class="edge">
<title>GenreService&#45;&gt;GenreModule</title>
<path fill="none" stroke="black" d="M544,-84.91C544,-94.7 544,-104.8 544,-104.8 544,-104.8 1565.37,-104.8 1565.37,-104.8 1565.37,-104.8 1565.37,-114.69 1565.37,-114.69"/>
<polygon fill="black" stroke="black" points="1561.87,-114.69 1565.37,-124.69 1568.87,-114.69 1561.87,-114.69"/>
</g>
<!-- HomepageService -->
<g id="node14" class="node">
<title>HomepageService</title>
<ellipse fill="#fdb462" stroke="black" cx="730" cy="-66.8" rx="81.65" ry="18"/>
<text text-anchor="middle" x="730" y="-62.6" font-family="Times,serif" font-size="14.00">HomepageService</text>
</g>
<!-- HomepageService&#45;&gt;HomepageModule -->
<g id="edge17" class="edge">
<title>HomepageService&#45;&gt;HomepageModule</title>
<path fill="none" stroke="black" d="M730,-84.84C730,-92.55 730,-99.8 730,-99.8 730,-99.8 1685.97,-99.8 1685.97,-99.8 1685.97,-99.8 1685.97,-114.31 1685.97,-114.31"/>
<polygon fill="black" stroke="black" points="1682.47,-114.31 1685.97,-124.31 1689.47,-114.31 1682.47,-114.31"/>
</g>
<!-- PrismaService -->
<g id="node16" class="node">
<title>PrismaService</title>
<ellipse fill="#fdb462" stroke="black" cx="2105" cy="-142.8" rx="66.64" ry="18"/>
<text text-anchor="middle" x="2105" y="-138.6" font-family="Times,serif" font-size="14.00">PrismaService</text>
</g>
<!-- PrismaService&#45;&gt;PrismaModule -->
<g id="edge19" class="edge">
<title>PrismaService&#45;&gt;PrismaModule</title>
<path fill="none" stroke="black" d="M2105,-124.79C2105,-102.31 2105,-66.8 2105,-66.8 2105,-66.8 1892.26,-66.8 1892.26,-66.8"/>
<polygon fill="black" stroke="black" points="1892.26,-63.3 1882.26,-66.8 1892.26,-70.3 1892.26,-63.3"/>
</g>
<!-- ProfileService -->
<g id="node17" class="node">
<title>ProfileService</title>
<ellipse fill="#fdb462" stroke="black" cx="918" cy="-66.8" rx="66.05" ry="18"/>
<text text-anchor="middle" x="918" y="-62.6" font-family="Times,serif" font-size="14.00">ProfileService</text>
</g>
<!-- ProfileService&#45;&gt;ProfileModule -->
<g id="edge21" class="edge">
<title>ProfileService&#45;&gt;ProfileModule</title>
<path fill="none" stroke="black" d="M918,-85.01C918,-90.35 918,-94.8 918,-94.8 918,-94.8 1816.72,-94.8 1816.72,-94.8 1816.72,-94.8 1816.72,-114.65 1816.72,-114.65"/>
<polygon fill="black" stroke="black" points="1813.22,-114.65 1816.72,-124.65 1820.22,-114.65 1813.22,-114.65"/>
</g>
<!-- UserService -->
<g id="node18" class="node">
<title>UserService</title>
<ellipse fill="#fdb462" stroke="black" cx="1082" cy="-66.8" rx="58.46" ry="18"/>
<text text-anchor="middle" x="1082" y="-62.6" font-family="Times,serif" font-size="14.00">UserService</text>
</g>
<!-- UserService&#45;&gt;UserModule -->
<g id="edge23" class="edge">
<title>UserService&#45;&gt;UserModule</title>
<path fill="none" stroke="black" d="M1082,-84.92C1082,-87.77 1082,-89.8 1082,-89.8 1082,-89.8 1928.67,-89.8 1928.67,-89.8 1928.67,-89.8 1928.67,-114.56 1928.67,-114.56"/>
<polygon fill="black" stroke="black" points="1925.17,-114.56 1928.67,-124.56 1932.17,-114.56 1925.17,-114.56"/>
</g>
</g>
</svg>
